<?xml version="1.0" encoding="iso-8859-1"?>
<!-- Generator: Adobe Illustrator 16.0.0, SVG Export Plug-In . SVG Version: 6.00 Build 0)  -->
<!DOCTYPE svg PUBLIC "-//W3C//DTD SVG 1.1//EN" "http://www.w3.org/Graphics/SVG/1.1/DTD/svg11.dtd">
<svg version="1.1" id="Capa_1" xmlns="http://www.w3.org/2000/svg" xmlns:xlink="http://www.w3.org/1999/xlink" x="0px" y="0px"
	 width="195.373px" height="195.373px" viewBox="0 0 195.373 195.373" style="enable-background:new 0 0 195.373 195.373;"
	 xml:space="preserve">
<g>
	<path fill="black" d="M194.295,73.917c-1.047-0.898-2.545-1.011-3.714-0.268l-32.735,20.776l-8.477-18.362c-0.359-0.755-0.986-1.343-1.777-1.623
		c-0.78-0.28-1.663-0.231-2.412,0.131l-22.311,10.833l-10.997-16.52c5.134-4.208,8.123-10.413,8.123-17.135
		c0-12.307-10.004-22.314-22.313-22.314S75.371,39.443,75.371,51.75c0,6.722,2.986,12.927,8.126,17.135L72.954,84.753L50.119,74.535
		c-1.571-0.718-3.386-0.012-4.104,1.535l-8.646,18.715L4.813,73.662c-1.148-0.743-2.661-0.649-3.718,0.244
		c-1.047,0.904-1.388,2.375-0.828,3.641l38.286,86.527c0.5,1.139,1.614,1.863,2.85,1.863h112.57c1.236,0,2.356-0.725,2.85-1.863
		l38.289-86.527C195.659,76.28,195.33,74.815,194.295,73.917z M145.04,81.568l7.496,16.236l-15.077,9.561l-11.112-16.724
		L145.04,81.568z M42.7,98.092l7.663-16.612l19.092,8.525l-11.886,17.884l-14.946-9.706C42.624,98.146,42.681,98.128,42.7,98.092z
		 M160.184,141.062h-13.676c-1.729,0-3.118,1.395-3.118,3.117c0,1.711,1.389,3.118,3.118,3.118h10.924l-5.48,12.392H43.427
		l-5.48-12.392h15.028c1.708,0,3.118-1.407,3.118-3.118c0-1.723-1.41-3.117-3.118-3.117H35.18L10.202,84.585l46.558,30.22
		c1.428,0.907,3.343,0.524,4.29-0.907l29.313-44.082c0.454-0.707,0.627-1.574,0.436-2.402c-0.18-0.837-0.691-1.547-1.428-1.982
		c-4.862-2.975-7.77-8.086-7.77-13.688c0-8.866,7.209-16.082,16.076-16.082c8.851,0,16.078,7.216,16.078,16.082
		c0,5.602-2.917,10.732-7.77,13.688c-0.73,0.435-1.236,1.16-1.432,1.982c-0.17,0.828-0.018,1.689,0.445,2.402l28.947,43.528
		c0.938,1.425,2.838,1.814,4.269,0.913l47.021-29.834L160.184,141.062z M94.345,80.98c1.428,0.962,1.814,2.901,0.861,4.323
		l-30.604,45.778c-0.597,0.907-1.583,1.395-2.594,1.395c-0.572,0-1.16-0.158-1.684-0.499l-21.61-13.822
		c-1.446-0.926-1.875-2.851-0.941-4.3c0.917-1.449,2.85-1.887,4.302-0.938l19.041,12.166L90.03,81.842
		C90.971,80.42,92.929,80.034,94.345,80.98z M93.511,144.18c0,1.711-1.41,3.118-3.118,3.118H71.687
		c-1.726,0-3.118-1.407-3.118-3.118c0-1.723,1.392-3.117,3.118-3.117h18.706C92.101,141.062,93.511,142.457,93.511,144.18z
		 M130.919,144.18c0,1.711-1.412,3.118-3.117,3.118h-18.706c-1.729,0-3.117-1.407-3.117-3.118c0-1.723,1.388-3.117,3.117-3.117
		h18.706C129.513,141.062,130.919,142.457,130.919,144.18z"/>
</g>
<g>
</g>
<g>
</g>
<g>
</g>
<g>
</g>
<g>
</g>
<g>
</g>
<g>
</g>
<g>
</g>
<g>
</g>
<g>
</g>
<g>
</g>
<g>
</g>
<g>
</g>
<g>
</g>
<g>
</g>
</svg>
